<?xml version="1.0" encoding="UTF-8"?>
<svg id="Layer_7" data-name="Layer 7" xmlns="http://www.w3.org/2000/svg" xmlns:xlink="http://www.w3.org/1999/xlink" viewBox="0 0 1024 1024">
  <defs>
    <style>
      .cls-1 {
        fill: none;
      }

      .cls-2 {
        fill: #fff;
      }

      .cls-3 {
        fill: #9e2916;
      }

      .cls-3, .cls-4, .cls-5 {
        fill-rule: evenodd;
      }

      .cls-4 {
        fill: #da7666;
      }

      .cls-6 {
        clip-path: url(#clippath);
      }

      .cls-5 {
        fill: #841906;
      }
    </style>
    <clipPath id="clippath">
      <path class="cls-1" d="M1024,910.22c0,62.83-50.94,113.78-113.78,113.78H113.78c-62.83,0-113.78-50.94-113.78-113.78V113.78C0,50.94,50.94,0,113.78,0h796.44c62.83,0,113.78,50.94,113.78,113.78v796.44Z"/>
    </clipPath>
  </defs>
  <g id="Layer_1" data-name="Layer 1">
    <g class="cls-6">
      <path id="path2" class="cls-5" d="M1024,799.74v224.26H0v-226.96l393.95-224.71.65-60.33h106.43s522.97,287.74,522.97,287.74Z"/>
      <path id="path4" class="cls-4" d="M0,797.04V0h1024v212.96l-522.97,299.05h-106.43s-.65,60.32-.65,60.32L0,797.04Z"/>
      <path id="path8" class="cls-3" d="M1024,212.96v586.79l-522.97-287.74,522.97-299.05Z"/>
    </g>
  </g>
  <g id="bs">
    <g id="B_noto" data-name="B noto">
      <path class="cls-2" d="M480.85,184.93c89.79,0,155.13,13.28,196.06,39.85,40.91,26.57,61.38,67.65,61.38,123.22,0,27.49-5.04,51.16-15.12,71-10.08,19.85-23.52,35.89-40.31,48.1-16.81,12.23-35.27,20.47-55.43,24.74v4.58c21.37,4.28,41.83,11.91,61.38,22.9,19.54,10.99,35.42,26.88,47.64,47.64,12.21,20.77,18.32,48.26,18.32,82.46,0,39.71-9.78,73.75-29.32,102.15-19.55,28.4-47.18,50.09-82.91,65.05-35.73,14.97-78.65,22.45-128.72,22.45h-244.62V184.93h211.64ZM488.18,446.95c40.31,0,68.1-7.33,83.37-21.99,15.26-14.66,22.9-33.9,22.9-57.72,0-25.04-9.02-43.52-27.03-55.43-18.02-11.91-46.58-17.87-85.66-17.87h-72.38v153h78.79ZM409.39,552.31v175.91h88.87c41.53,0,70.39-8.39,86.58-25.2,16.18-16.79,24.28-38.32,24.28-64.59,0-16.49-3.52-31.15-10.54-43.98-7.03-12.83-18.94-23.05-35.73-30.69-16.81-7.63-39.85-11.45-69.17-11.45h-84.29Z"/>
    </g>
  </g>
</svg>