<?xml version="1.0" encoding="UTF-8" standalone="no"?>
<!-- Created with Inkscape (http://www.inkscape.org/) -->

<svg
   width="161.65245mm"
   height="161.65245mm"
   viewBox="0 0 161.65245 161.65245"
   version="1.1"
   id="svg1"
   inkscape:version="1.4 (e7c3feb100, 2024-10-09)"
   sodipodi:docname="logo.svg"
   xmlns:inkscape="http://www.inkscape.org/namespaces/inkscape"
   xmlns:sodipodi="http://sodipodi.sourceforge.net/DTD/sodipodi-0.dtd"
   xmlns="http://www.w3.org/2000/svg"
   xmlns:svg="http://www.w3.org/2000/svg">
  <sodipodi:namedview
     id="namedview1"
     pagecolor="#505050"
     bordercolor="#eeeeee"
     borderopacity="1"
     inkscape:showpageshadow="0"
     inkscape:pageopacity="0"
     inkscape:pagecheckerboard="0"
     inkscape:deskcolor="#505050"
     inkscape:document-units="mm"
     inkscape:zoom="0.49764326"
     inkscape:cx="239.12712"
     inkscape:cy="355.67647"
     inkscape:window-width="1920"
     inkscape:window-height="1035"
     inkscape:window-x="1920"
     inkscape:window-y="22"
     inkscape:window-maximized="1"
     inkscape:current-layer="layer1" />
  <defs
     id="defs1" />
  <g
     inkscape:label="Layer 1"
     inkscape:groupmode="layer"
     id="layer1"
     transform="translate(-26.565481,-50.311974)">
    <rect
       style="fill:#ff0a30;fill-opacity:1;stroke-width:1.18032"
       id="rect2"
       width="161.65245"
       height="161.65245"
       x="26.565481"
       y="50.311974"
       ry="27.540792" />
    <path
       style="font-weight:bold;font-size:147.063px;font-family:Cantarell;-inkscape-font-specification:Cantarell;text-align:center;text-anchor:middle;fill:#ffffff;stroke-width:2.89494"
       d="m 71.469568,181.70473 h 38.089322 c 24.70658,0 40.1482,-12.20623 40.1482,-31.47149 0,-17.64756 -12.94155,-28.82434 -33.97156,-28.82434 H 83.381671 v 14.85336 h 28.971409 c 10.88267,0 17.79463,6.47077 17.79463,16.47106 0,9.41203 -5.73546,13.67685 -18.08875,13.67685 H 90.14657 V 95.084618 h 13.67686 c 11.9121,0 18.52994,4.853079 18.52994,13.676862 0,7.20608 -4.70602,12.20623 -15.58868,15.8828 l 18.677,2.05888 c 9.70616,-3.23538 16.02987,-12.35329 16.02987,-22.79476 0,-15.58868 -12.79448,-24.265397 -36.1775,-24.265397 H 71.469568 Z"
       id="text2"
       aria-label="B" />
  </g>
</svg>
